<?xml version="1.0" standalone="no"?>
<!DOCTYPE svg PUBLIC "-//W3C//DTD SVG 20010904//EN"
 "http://www.w3.org/TR/2001/REC-SVG-20010904/DTD/svg10.dtd">
<svg version="1.0" xmlns="http://www.w3.org/2000/svg"
 width="512.000000pt" height="512.000000pt" viewBox="0 0 512.000000 512.000000"
 preserveAspectRatio="xMidYMid meet">
<metadata>
Created by potrace 1.14, written by Peter Selinger 2001-2017
</metadata>
<g transform="translate(0.000000,512.000000) scale(0.100000,-0.100000)"
fill="#000000" stroke="none">
<path d="M1496 5098 c-31 -29 -559 -862 -574 -907 -19 -55 -14 -130 12 -186
13 -27 161 -279 329 -559 l306 -510 -100 -94 c-519 -490 -654 -1237 -338
-1877 222 -449 637 -762 1144 -862 129 -25 433 -25 570 1 498 92 922 412 1144
861 189 384 220 802 90 1205 -84 258 -225 481 -428 672 l-100 94 318 530 c175
292 323 545 329 564 15 42 15 117 0 161 -15 45 -543 878 -574 907 l-25 22
-1039 0 -1039 0 -25 -22z m1892 -186 c-13 -21 -126 -208 -253 -415 l-230 -376
-326 -1 -326 0 -267 410 c-146 226 -266 412 -266 415 0 3 381 5 846 5 l845 0
-23 -38z m-1364 -760 c251 -387 456 -708 456 -714 0 -8 -72 -132 -96 -167 -2
-1 -40 -9 -86 -17 -172 -29 -397 -109 -528 -188 l-55 -33 -317 530 c-175 291
-318 536 -318 544 0 21 5 29 248 411 123 195 228 350 232 345 4 -4 212 -324
464 -711z m1721 441 c263 -413 295 -465 295 -484 0 -9 -143 -255 -317 -546
l-318 -528 -91 50 c-173 95 -416 169 -601 182 -50 3 -97 9 -103 13 -7 4 160
286 471 793 265 433 484 787 488 787 3 0 83 -120 176 -267z m-958 -660 c-22
-42 -183 -301 -192 -311 -9 -10 -18 -3 -42 35 -16 26 -64 101 -106 166 l-77
117 211 0 c115 0 208 -3 206 -7z m84 -867 c268 -62 493 -186 687 -379 222
-219 357 -481 408 -797 21 -127 14 -388 -15 -511 -102 -444 -378 -790 -785
-985 -195 -93 -378 -134 -606 -134 -228 0 -411 41 -606 134 -407 195 -683 542
-785 985 -30 128 -37 374 -14 516 87 561 505 1022 1051 1161 149 37 207 43
389 39 136 -3 192 -9 276 -29z"/>
<path d="M2506 2918 c-15 -13 -29 -37 -32 -54 -5 -25 -1 -37 23 -62 27 -30 33
-32 143 -42 275 -24 501 -128 686 -314 186 -187 290 -409 315 -674 12 -133 20
-156 60 -172 35 -15 72 -7 100 23 20 21 21 29 16 137 -18 360 -201 701 -495
923 -168 126 -361 209 -562 242 -142 23 -223 20 -254 -7z"/>
<path d="M2504 2511 c-38 -16 -68 -65 -149 -238 l-80 -170 -187 -28 c-195 -29
-232 -42 -263 -89 -26 -39 -30 -97 -10 -136 9 -18 77 -95 151 -170 l134 -137
-30 -187 c-35 -220 -36 -241 -10 -283 26 -44 64 -66 113 -67 40 -1 122 39 357
172 28 16 32 16 60 0 235 -133 317 -173 357 -172 49 1 87 23 113 67 26 42 25
63 -10 282 l-31 187 135 138 c73 75 142 152 151 170 20 39 16 97 -10 136 -31
47 -68 60 -262 89 l-188 28 -84 178 c-95 203 -117 230 -188 235 -26 2 -57 0
-69 -5z m130 -371 c38 -82 79 -159 90 -169 31 -29 57 -36 228 -61 l158 -24
-129 -130 c-91 -93 -130 -141 -135 -163 -5 -20 3 -96 19 -198 15 -91 25 -168
22 -171 -3 -3 -69 29 -147 71 -108 60 -150 78 -180 78 -30 0 -72 -18 -180 -78
-78 -42 -144 -74 -147 -71 -3 3 7 80 22 171 16 102 24 178 19 198 -5 22 -44
70 -135 163 l-129 130 158 24 c171 25 197 32 228 61 11 10 52 87 90 169 38 82
71 150 74 150 3 0 36 -68 74 -150z"/>
<path d="M1354 1760 c-40 -16 -54 -49 -54 -126 0 -301 159 -652 397 -874 225
-210 537 -340 818 -340 81 0 84 1 110 32 21 25 25 38 21 62 -12 57 -33 68
-164 82 -162 16 -267 45 -397 109 -130 64 -215 126 -312 228 -174 184 -267
392 -296 665 -11 96 -18 127 -33 142 -24 23 -62 32 -90 20z"/>
</g>
</svg>
